<?xml version="1.0" encoding="UTF-8"?>
<!DOCTYPE svg PUBLIC "-//W3C//DTD SVG 1.1//EN" "http://www.w3.org/Graphics/SVG/1.1/DTD/svg11.dtd">
<!-- Creator: CorelDRAW X8 -->
<svg xmlns="http://www.w3.org/2000/svg" xml:space="preserve" width="226.488mm" height="149.121mm" version="1.1" style="shape-rendering:geometricPrecision; text-rendering:geometricPrecision; image-rendering:optimizeQuality; fill-rule:evenodd; clip-rule:evenodd"
viewBox="0 0 56219 37015"
 xmlns:xlink="http://www.w3.org/1999/xlink">
 <defs>
  <style type="text/css">
   <![CDATA[
    .fil0 {fill:#089106}
    .fil1 {fill:#FF6A00}
    .fil2 {fill:#4B4B4D;fill-rule:nonzero}
    .fil3 {fill:#373435;fill-rule:nonzero}
    .fil4 {fill:#089106;fill-rule:nonzero}
    .fil5 {fill:#FF6A00;fill-rule:nonzero}
   ]]>
  </style>
    <mask id="id0">
  <linearGradient id="id1" gradientUnits="userSpaceOnUse" x1="11707.6" y1="32257.2" x2="53464.2" y2="20422.6">
   <stop offset="0" style="stop-opacity:1; stop-color:white"/>
   <stop offset="1" style="stop-opacity:0; stop-color:white"/>
  </linearGradient>
     <rect style="fill:url(#id1)" x="5498" y="10446" width="50745" height="26594"/>
    </mask>
    <mask id="id2">
  <linearGradient id="id3" gradientUnits="userSpaceOnUse" x1="43752.4" y1="4064.61" x2="9703.85" y2="16903">
   <stop offset="0" style="stop-opacity:1; stop-color:white"/>
   <stop offset="1" style="stop-opacity:0; stop-color:white"/>
  </linearGradient>
     <rect style="fill:url(#id3)" x="1968" y="-25" width="50745" height="26594"/>
    </mask>
 </defs>
 <g id="Capa_x0020_1">
  <metadata id="CorelCorpID_0Corel-Layer"/>
  <g id="_2504096324016">
   <path class="fil0" style="mask:url(#id0)" d="M56219 10484l-7098 -13c-189,13544 -11223,24425 -24769,24425 -7235,0 -14108,-3163 -18829,-8628 5394,6802 13591,10747 22260,10747 14976,0 27399,-11590 28436,-26531z"/>
   <path class="fil1" style="mask:url(#id2)" d="M1993 26531l7098 13c190,-13545 11224,-24425 24769,-24425 7235,0 14108,3163 18829,8628 -5394,-6803 -13591,-10747 -22259,-10747 -14977,0 -27400,11590 -28437,26531z"/>
   <g>
    <path class="fil2" d="M4064 24891c-38,31 -103,73 -195,126 -92,54 -161,99 -208,136 -44,54 -154,158 -329,310 -140,123 -235,230 -286,324 1,9 12,34 31,75 13,29 16,54 8,76 -4,10 -10,20 -18,29 -104,63 -180,108 -227,134 -88,48 -165,86 -233,114 -64,-15 -95,-63 -93,-143 3,-66 6,-132 10,-200 -31,-74 -52,-196 -62,-366 -10,-164 -33,-283 -67,-360 -9,-21 -57,-43 -142,-65 -70,-18 -97,-48 -80,-92 6,-15 15,-32 29,-52 46,-24 115,-56 206,-95 31,-6 92,-29 183,-68 78,-35 138,-53 180,-53 28,0 53,7 74,20 10,26 11,65 5,118 -8,61 -10,102 -8,124 13,135 41,333 87,595 6,6 22,4 48,-7 200,-172 350,-339 450,-500 2,-24 -5,-67 -23,-131 -15,-52 -16,-99 -2,-140 41,-18 82,-26 124,-26 24,0 71,5 141,16 59,11 109,13 151,6 23,-2 58,-9 105,-22 48,-13 82,-20 104,-20 26,0 48,7 64,20 14,32 5,72 -27,117zm1679 432c-164,388 -373,634 -628,739 -188,76 -335,114 -442,114 -68,0 -127,-13 -178,-39 -211,-113 -310,-250 -298,-409 1,-54 2,-110 4,-166 2,-68 10,-124 27,-167 22,-59 59,-111 111,-157 195,-233 368,-382 519,-445 151,-63 285,-95 400,-95 85,0 153,19 205,56 213,59 306,248 280,569zm-544 307c43,-133 87,-266 130,-399 42,-152 25,-263 -51,-333 -21,-9 -47,-13 -80,-13 -68,0 -140,15 -217,46 -81,47 -149,124 -204,228 -43,92 -85,183 -126,275 -24,83 -48,167 -72,252 -23,96 -20,170 8,222 44,57 104,85 181,85 26,0 52,-4 77,-13 161,-59 279,-175 354,-350zm1528 380c-25,50 -39,77 -40,81 -21,31 -44,51 -69,62 -44,0 -90,0 -138,0 -39,0 -95,0 -167,0 -71,0 -126,0 -163,0 -89,0 -168,-8 -235,-26 -32,-37 -23,-80 26,-131 204,-119 329,-262 373,-427 38,-94 80,-215 128,-365 53,-170 92,-289 118,-356 41,-111 89,-216 144,-314 1,-8 16,-62 47,-159 22,-66 16,-110 -16,-134 -71,24 -116,36 -137,36 -19,0 -34,-5 -44,-13 -10,-44 8,-101 54,-170 66,-55 157,-103 273,-144 103,-35 205,-69 306,-102 53,0 82,26 89,79 -2,4 -95,248 -279,732 -111,288 -198,531 -262,729 -47,81 -84,155 -109,223 -41,109 -52,198 -33,268 6,13 35,29 87,49 40,15 55,42 47,82zm2720 -1119c-37,31 -102,73 -194,126 -92,54 -162,99 -208,136 -45,54 -155,158 -330,310 -139,123 -234,230 -285,324 1,9 11,34 31,75 13,29 15,54 7,76 -4,10 -10,20 -17,29 -105,63 -181,108 -227,134 -88,48 -166,86 -233,114 -64,-15 -95,-63 -93,-143 3,-66 6,-132 10,-200 -31,-74 -52,-196 -62,-366 -11,-164 -33,-283 -67,-360 -10,-21 -57,-43 -143,-65 -69,-18 -96,-48 -80,-92 6,-15 16,-32 30,-52 46,-24 115,-56 206,-95 30,-6 91,-29 182,-68 79,-35 139,-53 180,-53 29,0 53,7 75,20 9,26 11,65 4,118 -7,61 -10,102 -7,124 12,135 41,333 87,595 6,6 22,4 48,-7 200,-172 350,-339 450,-500 2,-24 -6,-67 -23,-131 -15,-52 -16,-99 -3,-140 42,-18 83,-26 124,-26 24,0 71,5 141,16 60,11 110,13 152,6 22,-2 57,-9 105,-22 47,-13 82,-20 104,-20 26,0 47,7 64,20 14,32 5,72 -28,117zm1391 772c3,22 -1,46 -11,72 -15,41 -76,116 -183,225 -135,105 -283,172 -444,200 -38,2 -74,3 -109,3 -223,0 -395,-55 -516,-167 -73,-154 -73,-327 -2,-516 19,-50 43,-102 74,-154 111,-192 321,-371 628,-539 161,-64 314,-95 458,-95 137,0 262,29 375,88 14,55 13,104 -3,147 -8,22 -19,42 -32,59 -42,55 -116,112 -222,173 -115,68 -195,124 -239,167 -145,113 -313,220 -504,321 -41,58 -49,95 -22,111 104,65 192,98 264,98 33,0 68,-6 104,-17 83,-45 211,-104 384,-176zm-215 -585c19,-72 10,-120 -27,-144 -14,-29 -43,-43 -89,-43 -35,0 -82,9 -141,26 -149,57 -258,176 -327,357 -19,52 -37,114 -53,186 -3,48 3,72 18,72 7,0 14,-2 22,-6 38,-31 145,-101 321,-210 128,-78 220,-158 276,-238zm2265 -13c-54,69 -104,106 -150,111 -22,6 -44,10 -65,10 -42,0 -89,-17 -143,-51 -54,-34 -98,-51 -133,-51 -24,0 -49,5 -74,13 -55,31 -110,62 -166,95 -70,42 -116,88 -138,141 -10,32 -31,81 -63,145 -32,65 -53,111 -64,139 -37,98 -29,169 22,213 2,0 53,9 152,29 58,13 98,37 120,72 -3,13 -6,26 -11,39 -24,63 -64,104 -121,121 -32,11 -66,17 -101,17 -26,0 -65,-5 -116,-14 -51,-8 -91,-13 -119,-13 -27,0 -51,2 -74,4 -22,2 -66,6 -132,13 -66,6 -117,10 -154,10 -79,0 -138,-14 -178,-40 -15,-19 -15,-47 -2,-81 10,-29 26,-51 47,-66 115,-37 190,-84 228,-140 38,-57 68,-116 91,-177 11,-28 24,-70 39,-126 16,-55 29,-97 39,-126 22,-56 49,-109 82,-157 17,-56 11,-92 -18,-108 -12,3 -35,9 -70,18 -36,10 -62,15 -79,15 -22,0 -36,-9 -43,-26 12,-33 26,-65 40,-96 14,-32 34,-60 60,-84 122,-50 302,-122 543,-216 45,-4 67,17 65,63 0,17 -12,59 -35,127 -18,52 -15,89 7,111 41,-17 124,-65 247,-144 100,-63 185,-103 255,-121 11,0 39,-3 85,-9 37,-5 65,-7 84,-7 61,0 102,19 123,56 21,37 22,80 3,130 0,3 -28,56 -83,161zm2903 680c-13,63 -22,103 -29,121 -20,54 -54,89 -101,104 -89,44 -223,105 -403,183 -99,-15 -144,-55 -137,-121 10,-28 21,-55 30,-81 12,-31 6,-52 -19,-62 -224,104 -343,160 -357,166 -134,55 -248,82 -344,82 -29,0 -55,-2 -80,-7 -160,-26 -232,-82 -217,-170 7,-41 18,-81 33,-121 71,-189 203,-329 396,-418 55,-31 146,-64 273,-101 117,-37 205,-75 264,-112 81,-39 171,-70 272,-94 47,-33 78,-91 94,-174 -7,-63 -43,-99 -110,-108 -81,-10 -171,9 -270,59 -65,68 -130,135 -194,203 -73,72 -150,113 -230,124 -46,7 -75,-26 -87,-98 -1,-22 4,-46 14,-72 23,-63 74,-128 152,-196 150,-115 336,-173 559,-173 72,0 171,7 299,23 54,28 108,56 160,85 58,39 84,90 80,153 -5,55 -23,129 -54,223 -35,109 -56,182 -63,219 -72,168 -117,296 -135,386 7,21 19,32 36,32 13,0 40,-10 81,-31 40,-21 69,-29 87,-24zm-446 -438c-61,0 -136,20 -223,62 -62,37 -129,68 -202,93 -73,25 -143,59 -212,103 -45,46 -78,95 -98,147 -30,81 -19,138 33,173 64,9 144,-10 240,-55 78,-40 157,-79 237,-118 69,-26 122,-88 159,-186 10,-29 22,-68 36,-118 13,-50 23,-84 30,-101zm2731 703c-26,50 -39,77 -41,81 -20,31 -43,51 -69,62 -44,0 -89,0 -137,0 -39,0 -95,0 -167,0 -72,0 -126,0 -163,0 -90,0 -168,-8 -236,-26 -32,-37 -23,-80 27,-131 204,-119 328,-262 373,-427 37,-94 80,-215 128,-365 52,-170 92,-289 117,-356 42,-111 90,-216 144,-314 1,-8 17,-62 47,-159 23,-66 17,-110 -16,-134 -70,24 -116,36 -136,36 -20,0 -34,-5 -45,-13 -9,-44 9,-101 54,-170 67,-55 158,-103 274,-144 102,-35 204,-69 306,-102 52,0 82,26 88,79 -2,4 -95,248 -279,732 -110,288 -197,531 -261,729 -48,81 -84,155 -110,223 -41,109 -52,198 -32,268 6,13 35,29 86,49 40,15 56,42 48,82zm2168 -687c-163,388 -373,634 -628,739 -187,76 -335,114 -442,114 -67,0 -127,-13 -178,-39 -210,-113 -309,-250 -297,-409 1,-54 2,-110 4,-166 1,-68 10,-124 27,-167 22,-59 59,-111 111,-157 194,-233 367,-382 519,-445 151,-63 284,-95 400,-95 85,0 153,19 205,56 213,59 306,248 279,569zm-544 307c44,-133 87,-266 131,-399 42,-152 25,-263 -51,-333 -21,-9 -48,-13 -80,-13 -68,0 -140,15 -217,46 -81,47 -149,124 -204,228 -43,92 -85,183 -126,275 -25,83 -49,167 -72,252 -23,96 -20,170 8,222 44,57 104,85 180,85 27,0 52,-4 77,-13 162,-59 280,-175 354,-350zm3741 200c-4,17 -14,39 -31,65 -19,33 -29,52 -32,59 -174,76 -355,146 -543,209 -41,0 -81,-16 -119,-49 10,-61 31,-134 63,-219 10,-26 27,-67 50,-123 23,-55 40,-97 50,-125 36,-96 59,-179 68,-249 8,-28 27,-70 55,-126 29,-55 48,-95 57,-119 27,-74 21,-128 -19,-160 -49,-7 -113,9 -191,49 -66,35 -132,71 -198,108 -138,37 -239,140 -303,310 -15,39 -36,107 -63,203 -23,83 -43,143 -61,180 19,28 39,58 58,88 20,39 23,77 9,114 -6,18 -16,35 -29,53 -74,15 -178,18 -314,8 -136,-10 -243,-6 -322,11 -34,-17 -46,-43 -35,-78 15,-46 52,-87 112,-124 82,-50 132,-86 151,-108 20,-57 67,-180 143,-370 62,-154 104,-278 126,-369 -7,-7 -16,-10 -29,-10 -13,0 -35,5 -66,15 -31,10 -52,14 -63,14 -22,0 -34,-12 -36,-35 4,-16 8,-30 13,-43 22,-59 64,-106 125,-141 31,-19 89,-43 174,-72 85,-28 145,-54 180,-78 91,-22 145,-23 162,-3 20,15 17,59 -10,131 -4,8 -8,21 -15,37 -6,16 -10,28 -12,34 -28,72 -26,108 5,108 24,0 64,-16 119,-49 73,-41 177,-87 314,-137 147,-55 251,-97 313,-128 25,-8 49,-13 73,-13 42,0 95,18 160,53 38,56 37,136 -1,238 -13,35 -38,90 -75,166 -37,75 -63,132 -78,171 -12,33 -22,63 -28,92 -22,41 -41,101 -58,180 -17,85 -33,144 -48,179 8,24 28,36 58,36 9,0 25,-1 46,-5 22,-3 38,-4 46,-4 27,0 43,8 49,26zm2024 -85c-13,63 -22,103 -29,121 -20,54 -54,89 -101,104 -89,44 -223,105 -403,183 -99,-15 -145,-55 -137,-121 10,-28 21,-55 30,-81 12,-31 5,-52 -19,-62 -224,104 -343,160 -357,166 -134,55 -249,82 -344,82 -29,0 -55,-2 -80,-7 -160,-26 -232,-82 -217,-170 7,-41 18,-81 33,-121 71,-189 203,-329 396,-418 55,-31 146,-64 273,-101 117,-37 205,-75 264,-112 81,-39 171,-70 271,-94 48,-33 79,-91 95,-174 -7,-63 -43,-99 -110,-108 -81,-10 -171,9 -270,59 -65,68 -130,135 -194,203 -73,72 -150,113 -230,124 -46,7 -75,-26 -87,-98 -1,-22 4,-46 14,-72 23,-63 74,-128 152,-196 150,-115 336,-173 559,-173 72,0 171,7 298,23 55,28 109,56 161,85 58,39 84,90 80,153 -5,55 -23,129 -54,223 -35,109 -56,182 -63,219 -72,168 -117,296 -136,386 8,21 20,32 37,32 13,0 40,-10 81,-31 40,-21 69,-29 87,-24zm-446 -438c-61,0 -136,20 -223,62 -62,37 -129,68 -202,93 -73,25 -143,59 -212,103 -46,46 -78,95 -98,147 -30,81 -19,138 33,173 64,9 144,-10 240,-55 78,-40 157,-79 237,-118 69,-26 122,-88 159,-186 10,-29 22,-68 36,-118 13,-50 23,-84 30,-101zm2348 -504c-19,72 -53,112 -105,121 -27,9 -54,13 -80,13 -30,0 -72,-9 -124,-26 -52,-18 -93,-26 -121,-26 -24,0 -47,3 -69,10 -11,13 -32,33 -63,62 -15,63 -67,206 -158,428 -70,174 -105,315 -106,422 32,65 76,97 131,95 36,4 85,-7 149,-35 63,-27 106,-41 128,-41 -12,55 -47,107 -105,157 -54,40 -108,79 -162,118 -75,26 -154,39 -237,39 -113,0 -206,-23 -278,-68 -91,-83 -101,-218 -31,-406 16,-41 48,-115 97,-222 43,-96 72,-169 89,-219 6,-18 19,-47 37,-87 19,-40 32,-70 39,-90 27,-72 25,-121 -7,-147 -16,-2 -41,0 -74,7 -40,8 -66,13 -77,13 -26,0 -44,-10 -54,-30 18,-43 30,-67 33,-72 14,-24 33,-39 57,-45 142,0 188,1 139,3 53,-2 93,-21 119,-56 7,-13 14,-27 20,-42 16,-44 25,-103 27,-177 1,-74 5,-117 10,-131 4,-10 11,-18 21,-22 184,-72 355,-162 513,-269 5,-2 10,-1 14,2 5,3 9,5 13,5 -1,44 -11,90 -30,141 -16,43 -50,109 -100,196 -50,87 -84,153 -101,199 -13,35 -23,69 -28,102 30,30 74,45 133,45 61,0 133,-15 217,-45 56,6 86,10 89,13 31,11 43,32 35,65zm1781 1193c-10,22 -28,37 -53,46 -25,9 -50,17 -74,23 -24,7 -109,14 -254,23 -105,6 -192,24 -262,52 -51,5 -69,-16 -51,-62 4,-17 14,-39 31,-65 16,-26 26,-45 30,-56 6,-15 7,-29 3,-42 -123,54 -247,109 -372,163 -146,59 -266,88 -360,88 -67,0 -127,-13 -178,-39 -36,-26 -49,-70 -39,-131 9,-52 19,-104 30,-157 117,-248 209,-481 276,-699 -9,-18 -22,-26 -39,-26 -16,0 -42,8 -79,26 -37,17 -62,26 -75,26 -20,0 -33,-11 -40,-33 3,-15 8,-30 14,-46 26,-69 76,-128 148,-176 46,-31 121,-65 224,-105 103,-39 175,-71 214,-95 67,-8 109,17 129,76 4,11 5,35 2,72 -7,19 -68,171 -181,454 -71,177 -121,326 -152,448 10,72 43,108 100,108 147,-13 289,-56 427,-128 63,-50 109,-114 138,-193 14,-37 30,-93 46,-170 17,-76 33,-134 47,-173 11,-28 23,-54 37,-78 -6,-16 -17,-23 -34,-23 -13,0 -38,9 -74,26 -36,17 -61,27 -75,29 -22,3 -30,-18 -22,-62 3,-19 8,-38 14,-55 26,-68 86,-122 183,-164 146,-63 224,-99 236,-108 69,-19 129,-29 182,-29 41,0 74,6 100,20 10,37 6,79 -12,127 -8,22 -25,57 -49,105 -25,48 -42,85 -52,111 -10,28 -22,70 -36,126 -13,55 -25,97 -36,126 -12,32 -40,99 -84,199 -38,87 -65,157 -82,209 -12,66 12,105 73,118 87,-7 120,21 97,82 -4,11 -10,22 -16,32z"/>
    <path class="fil2" d="M31222 25065c-54,69 -104,106 -149,111 -22,6 -44,10 -66,10 -42,0 -89,-17 -143,-51 -54,-34 -98,-51 -133,-51 -24,0 -48,5 -73,13 -56,31 -111,62 -167,95 -70,42 -116,88 -138,141 -10,32 -31,81 -63,145 -32,65 -53,111 -63,139 -37,98 -30,169 21,213 2,0 53,9 152,29 59,13 99,37 120,72 -2,13 -6,26 -11,39 -24,63 -64,104 -121,121 -32,11 -66,17 -101,17 -26,0 -65,-5 -116,-14 -51,-8 -91,-13 -119,-13 -26,0 -51,2 -73,4 -23,2 -67,6 -133,13 -65,6 -117,10 -154,10 -78,0 -138,-14 -178,-40 -14,-19 -15,-47 -2,-81 11,-29 27,-51 48,-66 114,-37 190,-84 227,-140 38,-57 68,-116 91,-177 11,-28 24,-70 40,-126 15,-55 28,-97 39,-126 21,-56 48,-109 82,-157 17,-56 11,-92 -19,-108 -11,3 -35,9 -70,18 -35,10 -62,15 -79,15 -22,0 -36,-9 -43,-26 13,-33 26,-65 40,-96 14,-32 34,-60 61,-84 121,-50 302,-122 542,-216 45,-4 67,17 65,63 0,17 -12,59 -35,127 -18,52 -15,89 7,111 42,-17 124,-65 247,-144 100,-63 185,-103 255,-121 11,0 39,-3 85,-9 37,-5 65,-7 85,-7 61,0 102,19 123,56 20,37 21,80 3,130 -1,3 -29,56 -84,161zm1759 680c-13,63 -22,103 -29,121 -20,54 -54,89 -101,104 -89,44 -223,105 -403,183 -99,-15 -145,-55 -137,-121 10,-28 21,-55 30,-81 12,-31 5,-52 -19,-62 -224,104 -343,160 -357,166 -134,55 -249,82 -344,82 -29,0 -55,-2 -80,-7 -160,-26 -232,-82 -217,-170 7,-41 18,-81 33,-121 71,-189 203,-329 396,-418 55,-31 146,-64 273,-101 117,-37 205,-75 264,-112 81,-39 171,-70 271,-94 48,-33 79,-91 95,-174 -7,-63 -43,-99 -110,-108 -81,-10 -171,9 -270,59 -65,68 -130,135 -194,203 -73,72 -150,113 -230,124 -46,7 -75,-26 -87,-98 -1,-22 4,-46 13,-72 24,-63 75,-128 153,-196 150,-115 336,-173 559,-173 72,0 171,7 298,23 55,28 109,56 161,85 58,39 84,90 80,153 -5,55 -23,129 -54,223 -35,109 -56,182 -63,219 -72,168 -117,296 -136,386 8,21 20,32 37,32 13,0 40,-10 81,-31 40,-21 69,-29 87,-24zm-446 -438c-61,0 -136,20 -223,62 -62,37 -129,68 -202,93 -73,25 -143,59 -212,103 -46,46 -78,95 -98,147 -30,81 -19,138 33,173 64,9 144,-10 240,-55 78,-40 157,-79 237,-118 69,-26 122,-88 159,-186 10,-29 22,-68 36,-118 13,-50 23,-84 30,-101zm1586 703c-25,50 -39,77 -40,81 -20,31 -43,51 -69,62 -44,0 -90,0 -138,0 -39,0 -95,0 -166,0 -72,0 -127,0 -164,0 -89,0 -168,-8 -235,-26 -32,-37 -23,-80 26,-131 204,-119 329,-262 373,-427 38,-94 80,-215 128,-365 53,-170 92,-289 118,-356 41,-111 89,-216 144,-314 1,-8 17,-62 47,-159 22,-66 17,-110 -16,-134 -71,24 -116,36 -136,36 -20,0 -35,-5 -45,-13 -10,-44 8,-101 54,-170 66,-55 157,-103 273,-144 103,-35 205,-69 306,-102 53,0 82,26 89,79 -2,4 -95,248 -279,732 -111,288 -198,531 -261,729 -48,81 -85,155 -110,223 -41,109 -52,198 -33,268 6,13 35,29 87,49 40,15 56,42 47,82zm884 -226c8,37 4,75 -11,114 -22,59 -66,113 -131,162 -65,49 -127,74 -186,74 -52,0 -93,-23 -121,-69 -23,-39 -31,-83 -26,-131 21,-52 38,-88 50,-108 26,-39 56,-67 91,-85 48,-34 101,-52 160,-52 89,0 147,32 174,95zm824 0c8,37 5,75 -10,114 -22,59 -66,113 -131,162 -66,49 -128,74 -187,74 -52,0 -92,-23 -121,-69 -22,-39 -31,-83 -26,-131 22,-52 39,-88 51,-108 25,-39 55,-67 90,-85 48,-34 102,-52 161,-52 89,0 147,32 173,95zm825 0c8,37 4,75 -11,114 -22,59 -65,113 -131,162 -65,49 -127,74 -186,74 -52,0 -93,-23 -121,-69 -23,-39 -31,-83 -26,-131 22,-52 38,-88 50,-108 26,-39 56,-67 91,-85 48,-34 101,-52 160,-52 90,0 147,32 174,95z"/>
   </g>
   <g>
    <path class="fil3" d="M6665 20079c-117,545 -448,976 -992,1294 -126,84 -628,306 -1508,666 -293,50 -569,75 -829,75 -946,0 -1604,-318 -1972,-954 -193,-268 -289,-595 -289,-980 0,-134 12,-333 37,-597 25,-264 38,-463 38,-597 0,-159 -21,-400 -63,-722 -42,-323 -63,-563 -63,-723 0,-201 13,-531 38,-992 25,-410 34,-729 25,-955 17,0 17,-134 0,-402 -25,-276 -54,-469 -88,-578 -42,-50 -92,-75 -151,-75 -58,0 -148,38 -270,113 -121,75 -207,113 -257,113 -92,0 -155,-105 -189,-314 -8,-67 -12,-130 -12,-189 0,-284 109,-506 326,-665 126,-93 365,-206 717,-340 351,-134 594,-259 728,-376 302,0 507,175 616,527 0,235 -13,586 -38,1055 -25,495 -38,859 -38,1093 0,469 38,876 113,1219 84,34 172,50 264,50 126,0 302,-46 528,-138 226,-92 394,-146 502,-163 252,-34 474,-50 666,-50 628,0 1118,163 1470,490 536,485 804,1193 804,2123 0,326 -37,657 -113,992zm-1357 -980c-117,-511 -531,-1017 -1243,-1520 -109,-25 -218,-38 -327,-38 -193,0 -419,55 -678,164 -361,201 -549,657 -566,1369 34,427 71,854 113,1282 92,460 323,766 691,917 134,58 281,88 440,88 293,0 540,-84 741,-252 586,-485 880,-1026 880,-1620 0,-134 -17,-264 -51,-390z"/>
    <path class="fil3" d="M10085 22014c-427,-17 -854,-34 -1281,-50 -494,-17 -926,0 -1294,50 -143,-42 -235,-155 -277,-337 -8,-174 92,-321 302,-436 234,-151 373,-268 414,-349 34,-235 46,-616 38,-1150 -8,-490 13,-869 63,-1135 -25,-58 -55,-117 -88,-174 -34,-58 -75,-92 -126,-100 -83,-25 -192,-4 -326,63 -159,67 -260,100 -302,100 -67,0 -125,-42 -176,-125 -33,-444 84,-754 352,-930 201,-126 498,-260 892,-402 427,-159 725,-285 892,-377 218,8 318,214 302,616 -93,477 -139,1017 -139,1620 0,411 30,1026 88,1847 34,159 193,314 478,465 284,151 427,285 427,402 0,109 -80,243 -239,402z"/>
    <path class="fil3" d="M15752 18886c-67,1490 -515,2437 -1344,2839 -611,293 -1122,440 -1533,440 -259,0 -506,-51 -741,-151 -971,-436 -1549,-959 -1733,-1571 -76,-209 -151,-422 -227,-640 -92,-260 -138,-473 -138,-641 0,-226 67,-427 201,-603 411,-896 861,-1466 1351,-1709 490,-242 957,-364 1401,-364 326,0 615,71 866,214 905,226 1537,954 1897,2186zm-1645 1181c-25,-511 -51,-1022 -76,-1533 -58,-586 -284,-1014 -678,-1282 -92,-33 -201,-50 -327,-50 -259,0 -515,59 -766,176 -243,184 -394,477 -452,880 -34,351 -63,703 -88,1055 25,318 54,641 88,967 50,369 167,653 351,854 252,218 524,327 817,327 100,0 193,-17 276,-50 536,-226 821,-674 855,-1344z"/>
   </g>
   <path class="fil3" d="M55705 20890c8,68 0,152 -26,253 -25,126 -38,202 -38,227 -564,295 -1162,564 -1793,809 -160,0 -337,-64 -531,-190 -50,-236 -76,-518 -76,-846 0,-101 5,-259 13,-474 9,-215 13,-377 13,-486 0,-371 -34,-691 -101,-960 -9,-110 2,-272 31,-486 30,-215 44,-369 44,-461 0,-287 -101,-493 -303,-619 -202,-26 -425,37 -669,189 -202,135 -404,274 -606,417 -480,143 -720,543 -720,1200 0,151 16,412 50,783 34,320 42,552 25,695 118,109 236,223 354,341 135,151 202,299 202,442 0,67 -12,135 -38,202 -261,59 -661,69 -1200,32 -539,-38 -947,-24 -1225,44 -160,-68 -244,-169 -253,-303 -8,-177 76,-337 253,-480 244,-194 387,-333 430,-417 -9,-219 -5,-695 12,-1428 17,-597 0,-1073 -50,-1427 -34,-25 -76,-38 -127,-38 -50,0 -128,19 -233,57 -106,38 -179,57 -221,57 -85,0 -148,-46 -190,-139 -8,-59 -13,-114 -13,-164 0,-228 93,-409 278,-543 93,-76 282,-169 569,-278 286,-110 480,-211 581,-303 320,-85 526,-89 619,-13 101,59 151,227 151,505 0,34 0,82 0,145 0,64 0,108 0,133 0,278 59,417 177,417 93,0 223,-63 392,-190 219,-160 555,-336 1010,-530 489,-211 830,-375 1023,-493 85,-33 173,-50 266,-50 160,0 391,67 694,202 228,219 341,526 341,922 0,135 -16,347 -50,638 -34,290 -51,511 -51,663 0,126 9,244 26,354 -26,160 -13,391 37,694 59,329 85,560 76,695 68,93 160,139 278,139 34,0 91,-6 171,-19 80,-13 137,-19 170,-19 101,0 177,34 228,101zm-9400 -2905c-33,-278 -139,-463 -315,-556 -93,-109 -228,-164 -405,-164 -134,0 -303,34 -505,101 -497,219 -745,678 -745,1377 0,202 21,442 63,720 59,185 118,278 177,278 25,0 50,-9 76,-26 101,-117 412,-387 934,-808 379,-303 619,-610 720,-922zm1680 2261c42,84 63,177 63,278 0,160 -126,450 -379,871 -370,405 -846,661 -1427,771 -143,8 -282,13 -417,13 -859,0 -1604,-215 -2235,-645 -506,-598 -758,-1263 -758,-1995 0,-194 21,-392 63,-594 151,-741 699,-1436 1642,-2084 530,-244 1074,-367 1629,-367 531,0 1057,114 1579,342 135,210 202,400 202,568 0,84 -12,160 -38,227 -84,211 -286,434 -606,670 -345,261 -572,476 -682,644 -396,438 -888,850 -1478,1238 -76,227 -50,370 76,429 497,253 884,379 1162,379 126,0 253,-21 379,-63 253,-177 661,-404 1225,-682zm-7492 303c76,-370 114,-720 114,-1048 0,-952 -286,-1625 -859,-2021 -295,-135 -665,-156 -1111,-63 -177,59 -333,185 -468,379 -135,193 -223,397 -265,612 -42,215 -63,432 -63,651 0,581 147,1052 442,1414 379,463 804,695 1276,695 84,0 172,-8 265,-25 320,-59 543,-257 669,-594zm1655 -3688c-126,699 -181,1608 -164,2728 25,1524 29,2438 12,2741 -294,1011 -879,1756 -1755,2236 -447,244 -1146,400 -2097,467 -303,-33 -606,-71 -910,-113 -353,-68 -572,-245 -656,-531 -26,-67 -38,-139 -38,-215 0,-177 84,-387 252,-631 85,-127 219,-190 405,-190 84,0 202,17 353,51 152,33 253,50 303,50 194,17 396,143 607,379 210,236 400,354 568,354 59,0 122,-8 190,-25 547,-160 930,-434 1149,-821 126,-320 190,-687 190,-1099 0,-211 -17,-417 -51,-619 -177,92 -442,223 -796,391 -269,152 -560,228 -871,228 -497,0 -1057,-194 -1680,-581 -472,-388 -708,-1028 -708,-1920 0,-211 13,-455 38,-733 59,-665 556,-1339 1491,-2021 134,-101 332,-164 593,-189 219,-17 438,-30 657,-38 211,-17 510,48 897,196 387,147 665,221 834,221 210,0 396,-72 556,-215 75,-51 147,-101 214,-152 101,-59 181,-88 240,-88 76,0 135,46 177,139zm-6494 5217c-429,-17 -859,-34 -1288,-51 -497,-17 -931,0 -1301,51 -144,-43 -236,-156 -278,-339 -9,-175 92,-323 303,-438 236,-152 375,-270 417,-352 33,-236 46,-619 38,-1156 -9,-492 12,-873 63,-1141 -26,-59 -55,-118 -89,-174 -33,-59 -75,-93 -126,-101 -84,-26 -194,-5 -328,63 -160,67 -261,101 -304,101 -67,0 -126,-42 -176,-127 -34,-446 84,-757 353,-934 202,-127 501,-261 897,-404 430,-160 728,-287 897,-379 219,8 320,214 303,619 -93,480 -139,1023 -139,1629 0,413 30,1032 89,1857 33,160 193,316 480,467 286,152 429,286 429,404 0,110 -80,245 -240,405zm-3437 -4144c-110,270 -249,413 -417,430 -76,25 -156,38 -240,38 -160,0 -369,-65 -625,-196 -257,-130 -453,-196 -588,-196 -92,0 -181,17 -265,51 -168,118 -337,240 -505,366 -211,160 -320,341 -329,543 9,127 -2,314 -31,562 -30,249 -44,428 -44,537 0,379 130,653 391,821 9,0 219,38 632,114 244,50 433,143 568,278 9,50 13,101 13,151 0,245 -97,400 -291,468 -109,42 -231,63 -366,63 -101,0 -257,-17 -467,-51 -211,-33 -371,-50 -480,-50 -101,0 -194,4 -278,12 -85,9 -249,26 -493,51 -244,25 -438,38 -581,38 -303,0 -552,-51 -745,-152 -84,-76 -127,-181 -127,-316 0,-109 30,-193 89,-252 387,-143 613,-324 676,-543 63,-219 94,-447 94,-682 0,-110 -10,-272 -31,-487 -21,-214 -32,-377 -32,-486 0,-219 30,-421 89,-606 -17,-219 -93,-358 -228,-417 -42,8 -124,31 -246,69 -122,38 -217,57 -284,57 -84,0 -152,-33 -202,-101 0,-126 4,-250 12,-372 9,-123 47,-230 114,-323 396,-193 989,-471 1781,-833 168,-17 282,63 341,240 25,67 42,231 51,492 8,202 71,346 189,430 135,-68 383,-253 745,-556 295,-244 564,-400 809,-467 42,0 147,-13 315,-38 135,-17 240,-25 316,-25 236,0 421,71 556,214 135,143 202,312 202,506 0,8 -29,214 -88,618zm-8883 850c-44,-876 -87,-1752 -130,-2628 -100,-1005 -488,-1737 -1163,-2197 -158,-57 -344,-86 -560,-86 -445,0 -883,101 -1314,302 -416,316 -674,818 -775,1507 -57,603 -108,1206 -151,1809 43,546 94,1099 151,1659 86,632 287,1120 603,1464 431,374 898,560 1400,560 172,0 330,-28 474,-86 919,-387 1407,-1156 1465,-2304zm2821 -2025c-115,2556 -883,4178 -2305,4868 -1048,502 -1924,754 -2627,754 -445,0 -869,-87 -1271,-259 -1665,-747 -2656,-1644 -2972,-2692 -129,-359 -259,-725 -388,-1099 -158,-445 -237,-811 -237,-1098 0,-388 115,-732 345,-1034 704,-1536 1475,-2513 2315,-2929 840,-416 1641,-624 2402,-624 560,0 1055,122 1486,366 1550,387 2635,1637 3252,3747z"/>
   <path class="fil4" d="M6545 19899c-117,545 -448,976 -992,1294 -126,84 -628,306 -1508,666 -293,51 -569,76 -829,76 -946,0 -1604,-319 -1972,-955 -193,-268 -289,-595 -289,-980 0,-134 12,-333 37,-597 26,-264 38,-463 38,-597 0,-159 -21,-399 -63,-722 -42,-322 -62,-563 -62,-722 0,-201 12,-532 37,-993 25,-410 34,-728 25,-955 17,0 17,-134 0,-402 -25,-276 -54,-469 -88,-577 -41,-51 -92,-76 -150,-76 -59,0 -149,38 -270,113 -122,76 -208,113 -258,113 -92,0 -155,-104 -188,-314 -9,-67 -13,-130 -13,-188 0,-285 109,-507 327,-666 125,-92 364,-205 716,-339 351,-134 594,-260 728,-377 302,0 507,176 616,527 0,235 -13,587 -38,1056 -25,494 -37,858 -37,1093 0,469 37,875 113,1218 83,34 171,51 263,51 126,0 302,-46 528,-139 226,-92 394,-146 503,-163 251,-33 473,-50 665,-50 629,0 1119,163 1470,490 536,486 804,1193 804,2123 0,327 -37,657 -113,992zm-1356 -979c-118,-511 -532,-1018 -1244,-1521 -109,-25 -218,-37 -327,-37 -192,0 -419,54 -678,163 -360,201 -549,658 -566,1369 34,428 72,855 113,1282 93,461 323,766 691,917 134,59 281,88 440,88 293,0 540,-84 741,-251 587,-486 880,-1026 880,-1621 0,-134 -17,-264 -50,-389z"/>
   <path class="fil4" d="M9965 21834c-427,-17 -854,-33 -1281,-50 -494,-17 -926,0 -1294,50 -142,-42 -235,-155 -277,-337 -8,-174 93,-320 302,-435 235,-151 373,-268 415,-350 33,-235 46,-616 37,-1150 -8,-490 13,-869 63,-1135 -25,-58 -54,-117 -88,-173 -33,-59 -75,-92 -125,-101 -84,-25 -193,-4 -327,63 -159,67 -260,101 -302,101 -67,0 -125,-42 -176,-126 -33,-444 84,-754 352,-930 201,-125 499,-259 892,-402 427,-159 725,-285 892,-377 218,9 318,214 302,616 -92,477 -138,1018 -138,1621 0,410 29,1026 87,1846 34,159 193,314 478,465 285,151 427,285 427,402 0,109 -80,243 -239,402z"/>
   <path class="fil4" d="M15633 18706c-67,1491 -515,2437 -1345,2839 -611,293 -1122,440 -1532,440 -260,0 -507,-50 -742,-151 -971,-435 -1549,-959 -1733,-1570 -76,-210 -151,-423 -226,-641 -93,-260 -139,-473 -139,-641 0,-226 67,-427 201,-603 411,-896 861,-1465 1351,-1708 490,-243 957,-365 1401,-365 326,0 615,72 867,214 904,226 1536,955 1897,2186zm-1646 1181c-25,-511 -50,-1022 -76,-1533 -58,-586 -284,-1013 -678,-1281 -92,-34 -201,-50 -327,-50 -259,0 -515,58 -766,175 -243,185 -394,478 -452,880 -34,352 -63,703 -88,1055 25,318 54,641 88,967 50,369 167,654 352,855 251,218 523,326 816,326 101,0 193,-16 277,-50 536,-226 820,-674 854,-1344z"/>
   <path class="fil5" d="M55585 20710c8,68 0,152 -26,253 -25,126 -37,202 -37,227 -565,295 -1162,565 -1794,809 -160,0 -337,-63 -531,-190 -50,-235 -75,-517 -75,-846 0,-101 4,-259 12,-474 9,-214 13,-376 13,-486 0,-370 -34,-690 -101,-960 -9,-109 2,-271 31,-486 30,-215 45,-369 45,-461 0,-287 -101,-493 -304,-619 -202,-25 -425,38 -669,189 -202,135 -404,274 -606,417 -480,143 -720,543 -720,1200 0,152 17,413 50,783 34,320 42,552 26,695 117,109 235,223 353,341 135,152 202,299 202,442 0,68 -12,135 -38,202 -261,59 -661,70 -1200,32 -538,-38 -947,-23 -1225,44 -160,-67 -244,-168 -252,-303 -9,-177 75,-337 252,-480 244,-194 388,-333 430,-417 -9,-219 -5,-695 12,-1427 17,-598 0,-1074 -50,-1428 -34,-25 -76,-38 -127,-38 -50,0 -128,19 -233,57 -105,38 -179,57 -221,57 -84,0 -148,-46 -190,-139 -8,-59 -12,-113 -12,-164 0,-227 92,-408 278,-543 92,-76 282,-169 568,-278 286,-109 480,-211 581,-303 320,-84 526,-89 619,-13 101,59 152,228 152,505 0,34 0,83 0,146 0,63 0,107 0,132 0,278 58,417 176,417 93,0 223,-63 392,-189 219,-160 556,-337 1010,-531 489,-210 830,-375 1024,-492 84,-34 172,-51 265,-51 160,0 391,67 695,202 227,219 341,526 341,922 0,135 -17,348 -51,638 -34,291 -50,512 -50,663 0,127 8,244 25,354 -25,160 -13,392 38,695 59,328 84,560 75,694 68,93 160,139 278,139 34,0 91,-6 171,-19 80,-12 137,-19 170,-19 101,0 177,34 228,101zm-9399 -2905c-34,-278 -139,-463 -316,-555 -93,-110 -228,-165 -404,-165 -135,0 -304,34 -506,101 -497,219 -745,678 -745,1377 0,202 21,442 63,720 59,185 118,278 177,278 25,0 51,-8 76,-25 101,-118 412,-388 935,-809 378,-303 618,-610 720,-922zm1679 2261c43,85 64,177 64,278 0,160 -127,451 -379,872 -371,404 -847,661 -1428,770 -143,9 -282,13 -416,13 -859,0 -1605,-215 -2236,-644 -505,-598 -758,-1263 -758,-1996 0,-194 21,-392 63,-594 152,-741 699,-1435 1642,-2084 531,-244 1074,-366 1630,-366 530,0 1056,113 1578,341 135,210 203,400 203,568 0,84 -13,160 -38,228 -85,210 -287,433 -607,669 -345,261 -572,476 -682,644 -395,438 -888,851 -1478,1238 -75,227 -50,371 76,430 497,252 884,379 1162,379 127,0 253,-22 379,-64 253,-176 661,-404 1225,-682zm-7491 303c75,-370 113,-720 113,-1048 0,-952 -286,-1625 -859,-2021 -294,-135 -665,-156 -1111,-63 -177,59 -333,185 -468,379 -134,193 -223,398 -265,612 -42,215 -63,432 -63,651 0,581 147,1053 442,1415 379,463 804,694 1276,694 84,0 172,-8 265,-25 320,-59 543,-257 670,-594zm1654 -3688c-126,699 -181,1608 -164,2728 25,1525 30,2438 13,2741 -295,1011 -880,1756 -1756,2236 -446,244 -1145,400 -2097,468 -303,-34 -606,-72 -909,-114 -354,-68 -573,-244 -657,-531 -25,-67 -38,-139 -38,-214 0,-177 84,-388 253,-632 84,-126 219,-189 404,-189 84,0 202,16 353,50 152,34 253,51 304,51 193,16 395,143 606,379 210,235 400,353 568,353 59,0 122,-8 190,-25 547,-160 930,-434 1149,-821 127,-320 190,-686 190,-1099 0,-210 -17,-417 -51,-619 -177,93 -442,223 -796,392 -269,151 -560,227 -871,227 -497,0 -1057,-194 -1680,-581 -472,-387 -707,-1027 -707,-1920 0,-210 12,-455 37,-733 59,-665 556,-1339 1491,-2021 135,-101 333,-164 594,-189 219,-17 437,-30 656,-38 211,-17 510,48 897,196 388,147 665,221 834,221 210,0 396,-72 556,-215 75,-50 147,-101 214,-151 101,-59 181,-89 240,-89 76,0 135,46 177,139zm-6494 5217c-429,-17 -859,-34 -1288,-51 -497,-17 -931,0 -1301,51 -143,-42 -236,-156 -278,-339 -9,-175 93,-322 303,-438 236,-152 375,-269 417,-352 34,-235 46,-618 38,-1155 -9,-493 12,-874 63,-1141 -25,-59 -55,-118 -88,-175 -34,-59 -76,-93 -127,-101 -84,-25 -193,-4 -328,63 -160,67 -261,101 -303,101 -68,0 -127,-42 -177,-126 -34,-447 84,-758 353,-935 203,-126 502,-261 897,-404 430,-160 729,-286 897,-379 219,8 320,215 303,619 -92,480 -139,1023 -139,1629 0,413 30,1032 89,1857 33,160 193,316 480,467 286,152 429,287 429,405 0,109 -80,244 -240,404zm-3437 -4143c-110,269 -249,412 -417,429 -76,25 -156,38 -240,38 -160,0 -368,-65 -625,-196 -257,-130 -453,-195 -588,-195 -92,0 -181,16 -265,50 -168,118 -337,240 -505,366 -211,160 -320,341 -328,544 8,126 -3,313 -32,562 -29,248 -44,427 -44,536 0,379 130,653 391,821 9,0 219,38 632,114 244,51 434,143 568,278 9,51 13,101 13,152 0,244 -97,400 -291,467 -109,42 -231,63 -366,63 -101,0 -257,-17 -467,-50 -211,-34 -371,-51 -480,-51 -101,0 -194,4 -278,13 -84,8 -249,25 -493,50 -244,26 -438,38 -581,38 -303,0 -551,-50 -745,-151 -84,-76 -126,-181 -126,-316 0,-110 29,-194 88,-253 387,-143 613,-324 676,-543 63,-219 95,-446 95,-682 0,-110 -11,-272 -32,-486 -21,-215 -32,-377 -32,-487 0,-219 30,-421 89,-606 -17,-219 -93,-358 -227,-417 -43,9 -125,32 -247,70 -122,38 -217,57 -284,57 -84,0 -152,-34 -202,-102 0,-126 4,-250 13,-372 8,-122 46,-230 113,-322 396,-194 990,-472 1781,-834 169,-17 282,63 341,240 26,67 42,232 51,493 8,202 71,345 189,429 135,-67 383,-252 745,-556 295,-244 565,-400 809,-467 42,0 147,-13 316,-38 134,-17 240,-25 315,-25 236,0 421,71 556,215 135,143 202,311 202,505 0,8 -29,215 -88,619zm-8883 849c-43,-876 -86,-1752 -129,-2628 -101,-1005 -489,-1737 -1164,-2196 -157,-58 -344,-87 -560,-87 -445,0 -883,101 -1313,302 -417,316 -675,818 -776,1508 -57,603 -107,1206 -150,1809 43,545 93,1098 150,1658 86,632 288,1120 603,1465 431,373 898,560 1400,560 173,0 331,-29 474,-86 919,-388 1407,-1156 1465,-2305zm2821 -2025c-115,2556 -883,4179 -2304,4868 -1049,503 -1924,754 -2628,754 -445,0 -869,-86 -1271,-259 -1665,-746 -2656,-1644 -2972,-2692 -129,-359 -258,-725 -388,-1098 -158,-445 -236,-812 -236,-1099 0,-387 114,-732 344,-1033 704,-1537 1475,-2513 2315,-2930 840,-416 1641,-624 2402,-624 560,0 1055,122 1486,366 1551,388 2635,1637 3252,3747z"/>
   <g>
    <path class="fil1" d="M33269 17470l-16 -378c721,-39 1278,-650 1249,-1372 -16,-385 -199,-745 -500,-985 374,273 601,702 620,1164 32,798 -559,1484 -1353,1571z"/>
    <path class="fil0" d="M35135 14794c258,315 -58,831 -491,534 -310,-209 -513,-512 -653,-871 264,-216 549,-384 920,-445 586,-54 646,658 224,782zm-1523 831c-315,258 -832,-58 -534,-492 209,-309 512,-513 871,-652 215,263 384,549 444,919 55,587 -657,647 -781,225zm-831 -1523c-258,-316 58,-832 491,-535 310,210 514,513 653,872 -263,215 -549,384 -920,444 -586,54 -646,-657 -224,-781zm1523 -832c316,-257 832,58 534,492 -209,310 -512,513 -871,652 -215,-263 -384,-549 -444,-919 -55,-586 657,-646 781,-225z"/>
    <path class="fil1" d="M33958 14228c122,0 220,98 220,220 0,121 -98,220 -220,220 -121,0 -220,-99 -220,-220 0,-122 99,-220 220,-220z"/>
   </g>
   <g>
    <path class="fil0" d="M8910 17470l15 -378c-721,-39 -1277,-650 -1248,-1372 15,-385 198,-745 500,-985 -374,273 -602,702 -620,1164 -32,798 559,1484 1353,1571z"/>
    <path class="fil1" d="M7043 14794c-258,315 58,831 492,534 309,-209 513,-512 652,-871 -263,-216 -549,-384 -919,-445 -587,-54 -647,658 -225,782zm1523 831c316,258 832,-58 535,-492 -210,-309 -513,-513 -872,-652 -215,263 -384,549 -444,919 -54,587 657,647 781,225zm832 -1523c257,-316 -58,-832 -492,-535 -310,210 -513,513 -652,872 263,215 549,384 919,444 586,54 646,-657 225,-781zm-1524 -832c-315,-257 -831,58 -534,492 209,310 512,513 871,652 216,-263 384,-549 445,-919 54,-586 -658,-646 -782,-225z"/>
    <path class="fil0" d="M8220 14228c-121,0 -220,98 -220,220 0,121 99,220 220,220 122,0 220,-99 220,-220 0,-122 -98,-220 -220,-220z"/>
   </g>
  </g>
 </g>
</svg>
